<svg width="181" height="270" viewBox="0 0 181 270" fill="none" xmlns="http://www.w3.org/2000/svg">
<path d="M86.9197 68.7815L87.1474 61.0901C87.1474 61.0901 86.3895 61.1492 85.2548 61.2108C79.1004 61.545 74.697 57.2412 74.7125 51.0777C74.7206 47.8137 75.0503 44.1851 76.0905 40.962L96.2535 38.6549L97.6881 49.9964C98.3672 48.0368 103.669 45.7912 105.134 48.5974C108.309 54.6782 96.9554 58.7725 96.9554 58.7725L98.1083 68.8741" fill="#FFCCD7"/>
<path d="M102.731 51.228L98.6953 53.2142" stroke="#0C092A" stroke-linecap="square"/>
<path d="M82.2971 49.267L81.5537 52.8274L83.149 53.1319" stroke="#001833" stroke-linecap="square"/>
<path opacity="0.399344" fill-rule="evenodd" clip-rule="evenodd" d="M87.1476 61.09L93.5903 59.7387L87.1785 63.9757L87.1476 61.09Z" fill="#0C092A"/>
<path fill-rule="evenodd" clip-rule="evenodd" d="M85.3801 49.0411C85.2474 49.7581 85.7343 50.4444 86.4671 50.574C87.2002 50.7037 87.9017 50.2275 88.0344 49.5107C88.167 48.7937 87.6802 48.1074 86.9473 47.9776C86.2142 47.848 85.5125 48.324 85.3801 49.0411Z" fill="#001833"/>
<path fill-rule="evenodd" clip-rule="evenodd" d="M77.3689 49.0411C77.2362 49.7581 77.7231 50.4444 78.4559 50.574C79.189 50.7037 79.8905 50.2275 80.0231 49.5107C80.1558 48.7937 79.6689 48.1074 78.9361 47.9776C78.203 47.848 77.5013 48.324 77.3689 49.0411Z" fill="#001833"/>
<path d="M85.5806 55.2004C85.5806 55.2004 84.2268 57.3585 81.5453 57.1756" stroke="#001833"/>
<path d="M101.499 47.5724C102.394 44.3154 105.634 32.2934 105.253 30.2411C104.811 27.8625 103.118 24.9427 94.4205 21.8802C87.0515 19.2855 82.8947 21.1643 81.6355 22.763C79.7196 25.1957 76.0906 40.9622 76.0906 40.9622C76.0906 40.9622 79.0933 43.0523 89.7414 42.6918C89.7414 42.6918 88.2674 48.9623 94.3099 48.602C94.3099 48.602 93.6624 50.7137 96.5865 51.3779C98.1909 48.9374 100.32 47.9511 101.499 47.5724Z" fill="#001833"/>
<path fill-rule="evenodd" clip-rule="evenodd" d="M139.946 221.793L131.846 214.478L134.66 207.08L151.996 219.755L137.953 243.893C137.953 243.893 137.501 237.894 138.236 231.25C138.743 226.659 139.946 221.793 139.946 221.793ZM61.8942 237.771L63.7441 231.899L71.5767 232.307L65.0578 248.433L40.0177 234.149C47.4485 231.934 61.8942 237.771 61.8942 237.771Z" fill="#0D0B6D"/>
<path fill-rule="evenodd" clip-rule="evenodd" d="M133.888 216.342L134.778 207.073L144.756 214.508L139.946 221.793L133.888 216.342ZM63.4182 232.892L71.1619 233.578L68.3033 240.404L61.894 237.771L63.4182 232.892Z" fill="#FFCCD7"/>
<path d="M78.0918 139.435L56.4898 234.534L62.4398 236.029H62.4424L69.3689 237.771L69.4035 237.779L71.8011 238.381C71.8011 238.381 82.8068 204.197 92.4957 173.701C94.8533 177.48 97.5089 181.216 100.497 184.849C121.729 210.663 134.72 221.697 134.72 221.697L136.652 218.831L136.657 218.823L141.301 211.934L144.659 206.951C144.659 206.951 115.585 179.932 102.503 141.923C104.803 134.523 106.397 129.241 106.806 127.55C109.151 117.912 109.198 113.496 109.198 113.143H84.0628L73.9831 113.143C74.3504 119.425 75.3642 128.766 78.0917 139.435L78.0918 139.435Z" fill="#B9B2F0"/>
<path fill-rule="evenodd" clip-rule="evenodd" d="M56.4896 234.534L62.4395 236.029H62.4422L69.3687 237.771L69.4033 237.779L71.8009 238.381C71.8009 238.381 82.8067 204.197 92.4956 173.7C96.2768 161.795 99.8558 150.453 102.503 141.923C104.803 134.523 106.396 129.241 106.806 127.55C109.15 117.912 109.198 113.496 109.198 113.143H84.0626L78.0917 139.435L56.4896 234.534Z" fill="#B9B2F0"/>
<path fill-rule="evenodd" clip-rule="evenodd" d="M65.4702 118.627C65.4702 118.627 69.0543 119.056 69.7365 120.582C71.6878 124.949 67.6445 132.756 67.6445 132.756C67.6445 132.756 69.3576 131.762 69.6985 132.632C69.8504 133.019 70.1942 136.112 63.7757 136.32C63.0942 136.342 61.4548 135.023 61.4548 135.023C61.4548 135.023 62.6501 137.195 60.8199 137.622C60.8199 137.622 57.8702 133.416 57.8249 132.48C57.78 131.544 58.7267 126.806 59.2385 125.85C59.7504 124.893 65.4702 118.627 65.4702 118.627ZM113.942 126.245C114.563 124.497 115.114 123.57 115.114 123.57L124.473 124.003C125.423 126.58 125.526 127.465 125.758 129.461C125.769 129.552 125.78 129.644 125.791 129.739C126.003 131.557 126.018 133.385 125.295 135.818C124.831 137.381 124.336 138.71 124.078 138.654C123.427 138.513 123.403 137.716 123.403 137.716L123.709 136.236L123.848 134.791C123.848 134.791 121.539 141.19 121.343 141.154C120.652 141.03 120.541 139.908 120.541 139.908C120.541 139.908 119.818 142.117 119.454 142.037C118.527 141.833 118.615 140.81 118.615 140.81C118.615 140.81 118.323 141.055 118.098 140.993C117.259 140.762 117.284 139.344 117.299 138.513C117.3 138.446 117.301 138.383 117.302 138.325C117.302 138.325 117.673 135.709 117.597 134.902C117.211 130.794 116.544 129.817 116.179 129.281C116.145 129.231 116.113 129.184 116.084 129.139C115.511 129.511 115.298 130.149 115.073 130.826C114.909 131.319 114.738 131.832 114.416 132.279C113.438 133.639 110.708 134.925 112.234 131.808C113.081 130.078 113.292 129.013 113.488 128.025C113.602 127.445 113.712 126.891 113.942 126.245Z" fill="#FFCCD7"/>
<path opacity="0.150646" d="M66.3335 124.269C66.3335 124.269 65.4328 127.507 62.3418 128.515C61.2609 128.868 61.531 133.033 58.8817 132.535" stroke="#0C092A" stroke-width="3"/>
<path fill-rule="evenodd" clip-rule="evenodd" d="M99.0097 68.963L97.8185 64.0594L92.6402 64.3745L89.0798 68.687L86.7648 64.7287L85.1123 64.8302L84.5989 69.4085C77.061 72.2381 75.746 75.0061 74.0964 78.4784C73.919 78.8517 73.7377 79.2333 73.5444 79.6239C71.3691 84.0205 74.0247 114.537 74.0247 114.537L106.676 113.064C106.676 113.064 102.252 69.2943 99.3538 68.997C99.2394 68.9852 99.1247 68.9739 99.0097 68.963Z" fill="#EFEFEF"/>
<path d="M74.6875 114.588L73.1561 90.4546" stroke="#12173A" stroke-width="5"/>
<path fill-rule="evenodd" clip-rule="evenodd" d="M113.809 132.934L116.134 143.298L98.6582 144.7C98.6582 144.7 97.1571 95.098 97.3045 80.5148C97.3721 73.8368 99.3538 68.9993 99.3538 68.9993C99.3538 68.9993 107.121 71.2363 108.882 72.3808C113.03 75.0771 122.047 87.9939 123.651 94.822C126.171 105.541 125.91 124.069 125.91 124.069L112.675 123.457L108.861 103.322L108.28 108.476L113.088 129.795C112.923 130.326 112.785 130.727 112.675 130.999C112.122 132.357 111.806 133.147 111.873 133.442C111.934 133.717 112.206 133.882 112.873 133.547C113.05 133.459 113.362 133.254 113.809 132.934ZM73.0499 123.46L71.2484 127.137L59.6678 120.829L69.1143 97.5224C69.1143 97.5224 71.5717 79.4702 73.0526 77.0598C75.9163 72.3992 84.5427 69.4315 84.5427 69.4315C84.5427 69.4315 84.54 69.4341 84.54 69.4367C84.4543 69.6527 84.3852 70.9033 84.2304 73.7066C84.1257 75.6016 83.9819 78.2062 83.7673 81.6804C83.2925 89.3628 78.7896 144.501 78.7896 144.501L72.5603 143.78L73.0499 123.46Z" fill="#09074A"/>
<path fill-rule="evenodd" clip-rule="evenodd" d="M105.385 84.1695L97.5257 100.51C97.5257 100.51 97.2942 82.5351 97.4012 78.2104C97.4765 75.167 99.3536 68.9993 99.3536 68.9993L102.474 71.529C104.454 73.1347 104.964 75.9034 103.68 78.0846L103.639 78.155L104.271 78.7159C105.827 80.0963 106.279 82.3096 105.385 84.1695ZM84.5424 69.4316L82.3468 100.356L76.6172 85.1351C75.7849 82.9239 76.4549 80.439 78.2942 78.9177L78.5382 78.7158L78.4288 78.1635C78.0174 76.0877 78.8117 73.9591 80.4929 72.6308L84.5424 69.4316Z" fill="#0C092A"/>
<path opacity="0.197498" d="M108.924 103.652L108.155 99.8921L104.263 92.8604" stroke="#0C092A" stroke-width="5"/>
</svg>
